<svg xmlns="http://www.w3.org/2000/svg" width="800" height="800" viewBox="0 0 256 256">
	<defs>
		<radialGradient id="b" cx="161.8" cy="788.4" r="95.4"
			gradientTransform="matrix(.9999 0 0 .9498 -4.6 -570.4)" gradientUnits="userSpaceOnUse">
			<stop offset=".7" style="stop-color:#000;stop-opacity:0" />
			<stop offset=".9" style="stop-color:#000;stop-opacity:.53" />
			<stop offset="1" style="stop-color:#000" />
		</radialGradient>
		<radialGradient id="d" cx="-773.6" cy="746.7" r="143.2"
			gradientTransform="matrix(.15 -.9898 .8 .12 -410.7 -656.3)"
			gradientUnits="userSpaceOnUse">
			<stop offset=".8" style="stop-color:#000;stop-opacity:0" />
			<stop offset=".9" style="stop-color:#000;stop-opacity:.5" />
			<stop offset="1" style="stop-color:#000" />
		</radialGradient>
		<radialGradient id="e" cx="230.6" cy="-106" r="202.4"
			gradientTransform="matrix(-.04 .9998 -2.1299 -.08 -190.8 -191.6)"
			gradientUnits="userSpaceOnUse">
			<stop offset="0" style="stop-color:#35c1f1" />
			<stop offset=".1" style="stop-color:#34c1ed" />
			<stop offset=".2" style="stop-color:#2fc2df" />
			<stop offset=".3" style="stop-color:#2bc3d2" />
			<stop offset=".7" style="stop-color:#36c752" />
		</radialGradient>
		<radialGradient id="f" cx="536.4" cy="-117.7" r="97.3"
			gradientTransform="matrix(.28 .9598 -.78 .23 -2 -410.3)" gradientUnits="userSpaceOnUse">
			<stop offset="0" style="stop-color:#66eb6e" />
			<stop offset="1" style="stop-color:#66eb6e;stop-opacity:0" />
		</radialGradient>
		<linearGradient id="a" x1="63.3" x2="241.6" y1="757.8" y2="757.8"
			gradientTransform="translate(-4.6 -580.8)" gradientUnits="userSpaceOnUse">
			<stop offset="0" style="stop-color:#0c59a4" />
			<stop offset="1" style="stop-color:#114a8b" />
		</linearGradient>
		<linearGradient id="c" x1="157.4" x2="46" y1="680.6" y2="801.9"
			gradientTransform="translate(-4.6 -580.8)" gradientUnits="userSpaceOnUse">
			<stop offset="0" style="stop-color:#1b9de2" />
			<stop offset=".2" style="stop-color:#1595df" />
			<stop offset=".7" style="stop-color:#0680d7" />
			<stop offset="1" style="stop-color:#0078d4" />
		</linearGradient>
	</defs>
	<path fill="url(#a)"
		d="M231 190.5a102.3 102.3 0 0 1-46.4 11.2c-47.3 0-88.5-32.5-88.5-74.3a31.4 31.4 0 0 1 16.4-27.3c-42.8 1.8-53.8 46.4-53.8 72.5 0 73.9 68.1 81.4 82.8 81.4 7.9 0 19.8-2.3 27-4.6l1.3-.4a128 128 0 0 0 66.6-52.8 4 4 0 0 0-1.2-5.5 4.2 4.2 0 0 0-4.2-.2z" />
	<path fill="url(#b)"
		d="M231 190.5a102.3 102.3 0 0 1-46.4 11.2c-47.3 0-88.5-32.5-88.5-74.3a31.4 31.4 0 0 1 16.4-27.3c-42.8 1.8-53.8 46.4-53.8 72.5 0 73.9 68.1 81.4 82.8 81.4 7.9 0 19.8-2.3 27-4.6l1.3-.4a128 128 0 0 0 66.6-52.8 4 4 0 0 0-1.2-5.5 4.2 4.2 0 0 0-4.2-.2z"
		opacity=".3" />
	<path fill="url(#c)"
		d="M105.7 241.4a80.7 80.7 0 0 1 6.8-141.3c3.1-1.5 8.4-4.1 15.5-4a32.6 32.6 0 0 1 32.1 31.7c0-.2 24.5-79.6-80-79.6-43.9 0-80 41.7-80 78.2a128 128 0 0 0 168.5 123.1 75.8 75.8 0 0 1-62.9-8.1z" />
	<path fill="url(#d)"
		d="M105.7 241.4a80.7 80.7 0 0 1 6.8-141.3c3.1-1.5 8.4-4.1 15.5-4a32.6 32.6 0 0 1 32.1 31.7c0-.2 24.5-79.6-80-79.6-43.9 0-80 41.7-80 78.2a128 128 0 0 0 168.5 123.1 75.8 75.8 0 0 1-62.9-8.1z"
		opacity=".4" />
	<path fill="url(#e)"
		d="M152.3 148.9c-.8 1-3.3 2.5-3.3 5.7 0 2.6 1.7 5.1 4.7 7.2 14.4 10 41.5 8.7 41.6 8.7a61.3 61.3 0 0 0 60.7-61.2c.3-22.4-8-37.3-11.3-43.9C223.5 23.9 177.7 0 128 0A128 128 0 0 0 0 126.2c.5-36.5 36.8-66 80-66 3.5 0 23.5.3 42 10.1a72.3 72.3 0 0 1 30.8 29.2 64 64 0 0 1 7.3 29.5 36 36 0 0 1-7.8 19.9z" />
	<path fill="url(#f)"
		d="M152.3 148.9c-.8 1-3.3 2.5-3.3 5.7 0 2.6 1.7 5.1 4.7 7.2 14.4 10 41.5 8.7 41.6 8.7a61.3 61.3 0 0 0 60.7-61.2c.3-22.4-8-37.3-11.3-43.9C223.5 23.9 177.7 0 128 0A128 128 0 0 0 0 126.2c.5-36.5 36.8-66 80-66 3.5 0 23.5.3 42 10.1a72.3 72.3 0 0 1 30.8 29.2 64 64 0 0 1 7.3 29.5 36 36 0 0 1-7.8 19.9z" />
</svg>